<svg xmlns="http://www.w3.org/2000/svg" viewBox="0 0 24 30" fill="none" x="0px" y="0px"><path d="M7.5 16.375C7.15482 16.375 6.875 16.6548 6.875 17C6.875 17.3452 7.15482 17.625 7.5 17.625H13.5C13.8452 17.625 14.125 17.3452 14.125 17C14.125 16.6548 13.8452 16.375 13.5 16.375H7.5Z" fill="black"/><path fill-rule="evenodd" clip-rule="evenodd" d="M11.6727 20.0884L12.7409 20.5178C12.9099 20.5963 13.0892 20.625 13.2464 20.625C13.4125 20.625 13.6034 20.5929 13.7806 20.5039L13.7952 20.4963L14.8425 19.9351L15.6317 20.2955C15.6516 20.3046 15.672 20.3126 15.6928 20.3196C16.0944 20.4541 16.5236 20.3923 16.8562 20.1509C17.1921 19.9072 17.3859 19.513 17.3859 19.0717L17.3859 6.40273C17.3859 5.37411 17.745 4.98086 17.9857 4.81458C18.1233 4.71954 18.2628 4.67095 18.3685 4.64661C18.4207 4.63459 18.462 4.62911 18.4867 4.62667C18.4985 4.62551 18.5061 4.62507 18.509 4.62494L18.525 4.62451C18.5701 4.63148 18.6166 4.6336 18.664 4.63036C19.0352 4.6049 19.2644 4.67394 19.4068 4.75205C19.55 4.83058 19.6486 4.94203 19.7201 5.06938C19.7939 5.20096 19.8346 5.34333 19.8558 5.45937C19.8661 5.51578 19.8709 5.56165 19.8732 5.59085C19.8743 5.60532 19.8748 5.61532 19.8749 5.62002L19.875 5.62156V7.375H18.5C18.1548 7.375 17.875 7.65482 17.875 8C17.875 8.34518 18.1548 8.625 18.5 8.625H20.5C20.8452 8.625 21.125 8.34518 21.125 8V5.61697H20.5C21.125 5.61697 21.125 5.61697 21.125 5.61697L21.125 5.61557L21.125 5.614L21.125 5.61035L21.1248 5.60109L21.1241 5.57493C21.1234 5.55422 21.122 5.52698 21.1195 5.49416C21.1144 5.42876 21.1046 5.33978 21.0855 5.23517C21.048 5.02918 20.9713 4.74486 20.8102 4.45781C20.6468 4.16652 20.3932 3.86737 20.0079 3.65608C19.6256 3.44635 19.1555 3.34622 18.5945 3.38222C18.5634 3.37747 18.5315 3.375 18.4991 3.375L6.76087 3.375C4.60129 3.375 2.875 5.11384 2.875 7.27645V19.1445C2.875 20.0557 3.7744 20.5854 4.56806 20.3196C4.57971 20.3157 4.59124 20.3115 4.60264 20.3069L5.63256 19.8929L5.64773 19.9021L6.51729 20.4118C6.55453 20.4336 6.59392 20.4515 6.63484 20.4652L6.6529 20.4713C6.74764 20.5033 6.91868 20.5609 7.09351 20.5769C7.27742 20.5937 7.52651 20.5703 7.7498 20.4054L8.60797 20.0074L9.59624 20.5039C9.77342 20.5929 9.96432 20.625 10.1304 20.625C10.2902 20.625 10.473 20.5953 10.6443 20.5138L11.6457 20.0826L11.6522 20.0798L11.6632 20.0845L11.6727 20.0884ZM6.76087 4.625L16.5296 4.625C16.2885 5.06933 16.1359 5.65144 16.1359 6.40273L16.1359 19.0717C16.1359 19.1092 16.1282 19.1279 16.1253 19.1337C16.1239 19.1365 16.1222 19.1389 16.1222 19.1389L16.1208 19.1392C16.1208 19.1392 16.1184 19.1395 16.1158 19.1394C16.1138 19.1394 16.1111 19.1393 16.1079 19.1388L15.362 18.7981C15.1885 18.7139 15.0027 18.6833 14.8406 18.6833C14.6745 18.6833 14.4836 18.7154 14.3064 18.8044L14.2917 18.812L13.2444 19.3733C13.2382 19.3706 13.2321 19.368 13.2258 19.3655L12.1576 18.9361C11.9887 18.8577 11.8093 18.8289 11.6522 18.8289C11.4924 18.8289 11.3097 18.8586 11.1383 18.9401L10.1369 19.3714L10.1313 19.3738L9.14289 18.8772C8.96571 18.7882 8.77481 18.7561 8.6087 18.7561C8.44593 18.7561 8.25938 18.7869 8.08525 18.8719L7.1501 19.3056L7.13412 19.3133C7.12137 19.3094 7.10773 19.305 7.09265 19.3001L6.33473 18.8559C5.97617 18.5558 5.51361 18.5755 5.20552 18.7174L4.16075 19.1373C4.14787 19.1404 4.1388 19.1401 4.13326 19.1394C4.12989 19.1389 4.12715 19.1382 4.125 19.1374L4.125 7.27645C4.125 5.79857 5.29726 4.625 6.76087 4.625Z" fill="black"/><path d="M8.64431 7.375H10.5889C10.5963 7.37487 10.6037 7.37487 10.6111 7.375H12.5574C12.9328 7.375 13.2258 7.69432 13.2258 8.07376C13.2258 8.4532 12.9328 8.77252 12.5574 8.77252H11.5967C11.6472 8.9855 11.6832 9.21011 11.7 9.44053H12.5574C12.9328 9.44053 13.2258 9.75984 13.2258 10.1393C13.2258 10.5187 12.9328 10.838 12.5574 10.838H11.5393C11.3865 11.2974 11.1211 11.7376 10.7069 12.0971C10.5865 12.2016 10.4558 12.2972 10.3149 12.3834L11.9064 13.3168C12.2291 13.506 12.3403 13.9297 12.1649 14.263C11.9876 14.5999 11.579 14.7273 11.252 14.5355L8.31722 12.8142C8.06249 12.6648 7.93284 12.3625 7.98876 12.0685C8.0448 11.774 8.27671 11.5449 8.56981 11.5105C9.20364 11.4361 9.60207 11.2394 9.85291 11.0217C9.91904 10.9644 9.97787 10.903 10.03 10.838H8.64431C8.26882 10.838 7.97583 10.5187 7.97583 10.1393C7.97583 9.75984 8.26882 9.44053 8.64431 9.44053H10.3569C10.3295 9.19739 10.2706 8.96658 10.1962 8.77252H8.64431C8.26882 8.77252 7.97583 8.4532 7.97583 8.07376C7.97583 7.69432 8.26882 7.375 8.64431 7.375Z" fill="black"/><text x="0" y="39" fill="#000000" font-size="5px" font-weight="bold" font-family="'Helvetica Neue', Helvetica, Arial-Unicode, Arial, Sans-serif">Created by Kuldeep Singh</text><text x="0" y="44" fill="#000000" font-size="5px" font-weight="bold" font-family="'Helvetica Neue', Helvetica, Arial-Unicode, Arial, Sans-serif">from the Noun Project</text></svg>