<svg xmlns="http://www.w3.org/2000/svg" xmlns:xlink="http://www.w3.org/1999/xlink" xml:space="preserve" version="1.1" style="shape-rendering:geometricPrecision;text-rendering:geometricPrecision;image-rendering:optimizeQuality;" viewBox="0 0 589 598.75" x="0px" y="0px" fill-rule="evenodd" clip-rule="evenodd"><defs><style type="text/css">
   
    .fil0 {fill:black}
   
  </style></defs><g><path class="fil0" d="M60 167l41 -111c15,-29 38,-47 65,-56l257 0c27,9 49,27 65,56l41 111 53 0c4,0 7,3 7,7l0 22c0,4 -3,8 -7,8l-31 0c9,11 18,24 27,41 0,67 1,134 1,202 0,17 -14,32 -32,32l-22 0c-18,0 -32,-15 -32,-32l0 -41 -397 0 0 41c0,17 -14,32 -32,32l-22 0c-18,0 -32,-15 -32,-32 0,-68 1,-135 1,-202 9,-17 18,-30 27,-41l-31 0c-4,0 -7,-4 -7,-8l0 -22c0,-4 3,-7 7,-7l53 0zm111 -123c-17,3 -28,14 -34,28 -12,33 -25,71 -36,104l387 0c-11,-33 -25,-71 -36,-104 -7,-14 -17,-25 -34,-28l-247 0zm306 204c-20,0 -36,16 -36,36 0,20 16,36 36,36 19,0 35,-16 35,-36 0,-20 -16,-36 -35,-36zm-365 0c20,0 36,16 36,36 0,20 -16,36 -36,36 -19,0 -35,-16 -35,-36 0,-20 16,-36 35,-36z"/></g><text x="0" y="494" fill="#000000" font-size="5px" font-weight="bold" font-family="'Helvetica Neue', Helvetica, Arial-Unicode, Arial, Sans-serif">Created by Fasobrun Jamil</text><text x="0" y="499" fill="#000000" font-size="5px" font-weight="bold" font-family="'Helvetica Neue', Helvetica, Arial-Unicode, Arial, Sans-serif">from the Noun Project</text></svg>