<?xml version="1.0" encoding="UTF-8"?>
<svg width="1200pt" height="1200pt" version="1.1" viewBox="0 0 1200 1200" xmlns="http://www.w3.org/2000/svg">
 <path d="m480 75c-91.125 0-165 73.875-165 165 0 27 6.4688 52.5 18 75h-35.672c-25.969 0-49.781 0-69.141 2.5781-21.328 2.9062-43.875 9.6562-62.438 28.172-18.516 18.562-25.266 41.109-28.172 62.438-2.5781 19.359-2.5781 43.172-2.5781 69.141v5.3438c0 25.969 0 49.781 2.5781 69.141 2.9062 21.328 9.6562 43.875 28.172 62.438 9 9 18.938 15.234 29.25 19.594v209.29c0 53.906 0 98.859 4.7812 134.53 5.0625 37.688 16.219 71.672 43.547 99s61.312 38.484 99 43.547c35.672 4.7812 80.625 4.7812 134.53 4.7812h246.28c53.906 0 98.859 0 134.53-4.7812 37.688-5.0625 71.672-16.219 99-43.547s38.484-61.312 43.547-99c4.7812-35.672 4.7812-80.625 4.7812-134.53v-209.29c10.312-4.3594 20.25-10.594 29.25-19.594 18.516-18.562 25.266-41.109 28.172-62.438 2.5781-19.359 2.5781-43.172 2.5781-69.141v-5.3438c0-25.969 0-49.781-2.5781-69.141-2.9062-21.328-9.6562-43.875-28.172-62.438-18.562-18.516-41.109-25.266-62.438-28.172-19.359-2.5781-43.172-2.5781-69.141-2.5781h-35.672c11.531-22.5 18-48 18-75 0-91.125-73.875-165-165-165-47.297 0-89.906 19.875-120 51.75-30.094-31.875-72.703-51.75-120-51.75zm-180 330h600c29.578 0 47.203 0.09375 59.859 1.7812 5.7656 0.79688 8.6719 1.6875 9.9844 2.25 0.28125 0.14062 0.51562 0.23438 0.60938 0.28125l0.09375 0.046875 0.046875 0.046875c0.046875 0 0.046875 0.046875 0.09375 0.14062s0.14062 0.32812 0.28125 0.60938c0.5625 1.3125 1.4531 4.2188 2.25 9.9844 1.6875 12.656 1.7812 30.281 1.7812 59.859s-0.09375 47.203-1.7812 59.859c-0.79688 5.7656-1.6875 8.6719-2.25 9.9844-0.14062 0.28125-0.23438 0.51562-0.28125 0.60938s-0.046875 0.14062-0.09375 0.14062c0 0.046875-0.046875 0.046875-0.14062 0.09375s-0.32812 0.14062-0.60938 0.28125c-1.3125 0.5625-4.2188 1.4531-9.9844 2.25-12.656 1.6875-30.281 1.7812-59.859 1.7812h-600c-29.578 0-47.203-0.09375-59.859-1.7812-5.7656-0.79688-8.6719-1.6875-9.9844-2.25-0.28125-0.14062-0.51562-0.23438-0.60938-0.28125s-0.14062-0.046875-0.14062-0.09375c-0.046875 0-0.046875-0.046875-0.09375-0.14062s-0.14062-0.32812-0.28125-0.60938c-0.5625-1.3125-1.4531-4.2188-2.25-9.9844-1.6875-12.656-1.7812-30.281-1.7812-59.859s0.09375-47.203 1.7812-59.859c0.79688-5.7656 1.6875-8.6719 2.25-9.9844 0.14062-0.28125 0.23438-0.51562 0.28125-0.60938s0.046875-0.14062 0.09375-0.14062c0-0.046875 0.046875-0.046875 0.14062-0.09375s0.32812-0.14062 0.60938-0.28125c1.3125-0.5625 4.2188-1.4531 9.9844-2.25 12.656-1.6875 30.281-1.7812 59.859-1.7812zm-15 240v195c0 57.844 0.09375 96.703 3.9844 125.68 3.75 27.703 10.172 39.562 18 47.344 7.7812 7.8281 19.641 14.25 47.344 18 28.969 3.8906 67.828 3.9844 125.68 3.9844h75v-390h-270zm360 0v390h75c57.844 0 96.703-0.09375 125.68-3.9844 27.703-3.75 39.562-10.172 47.344-18 7.8281-7.7812 14.25-19.641 18-47.344 3.8906-28.969 3.9844-67.828 3.9844-125.68v-195h-12.328zm-90-405c0-41.438-33.562-75-75-75s-75 33.562-75 75 33.562 75 75 75h75zm90 0v75h75c41.438 0 75-33.562 75-75s-33.562-75-75-75-75 33.562-75 75z" fill-rule="evenodd"/>
</svg>
