<svg xmlns:dc="http://purl.org/dc/elements/1.1/" xmlns:cc="http://creativecommons.org/ns#" xmlns:rdf="http://www.w3.org/1999/02/22-rdf-syntax-ns#" xmlns:svg="http://www.w3.org/2000/svg" xmlns="http://www.w3.org/2000/svg" xmlns:sodipodi="http://sodipodi.sourceforge.net/DTD/sodipodi-0.dtd" xmlns:inkscape="http://www.inkscape.org/namespaces/inkscape" viewBox="0 0 8.4666665 10.583333625" version="1.1" x="0px" y="0px"><g transform="translate(0,-288.53332)"><path style="color:#000000;font-style:normal;font-variant:normal;font-weight:normal;font-stretch:normal;font-size:medium;line-height:normal;font-family:sans-serif;font-variant-ligatures:normal;font-variant-position:normal;font-variant-caps:normal;font-variant-numeric:normal;font-variant-alternates:normal;font-feature-settings:normal;text-indent:0;text-align:start;text-decoration:none;text-decoration-line:none;text-decoration-style:solid;text-decoration-color:#000000;letter-spacing:normal;word-spacing:normal;text-transform:none;writing-mode:lr-tb;direction:ltr;text-orientation:mixed;dominant-baseline:auto;baseline-shift:baseline;text-anchor:start;white-space:normal;shape-padding:0;clip-rule:nonzero;display:inline;overflow:visible;visibility:visible;opacity:1;isolation:auto;mix-blend-mode:normal;color-interpolation:sRGB;color-interpolation-filters:linearRGB;solid-color:#000000;solid-opacity:1;vector-effect:none;fill:#000000;fill-opacity:1;fill-rule:nonzero;stroke:none;stroke-width:1.9052403;stroke-linecap:round;stroke-linejoin:round;stroke-miterlimit:4;stroke-dasharray:none;stroke-dashoffset:0;stroke-opacity:1;paint-order:fill markers stroke;color-rendering:auto;image-rendering:auto;shape-rendering:auto;text-rendering:auto;enable-background:accumulate" d="M 9.8984375,3.2324219 C 9.3868974,3.2836773 8.997545,3.7144143 8.9980469,4.2285156 V 7.7949219 H 3.3144531 c -0.8634919,0 -1.5878906,0.7244197 -1.5878906,1.5878906 V 27.179688 c 0,0.86347 0.7243987,1.59375 1.5878906,1.59375 H 28.685547 c 0.863492,0 1.587891,-0.73028 1.587891,-1.59375 V 9.3828125 c 0,-0.8634709 -0.724399,-1.5878906 -1.587891,-1.5878906 H 23.001953 V 4.2285156 c -0.0022,-0.5522633 -0.451642,-0.9981998 -1.003906,-0.9960937 -4.030221,-7e-7 -8.077031,0 -12.0996095,0 z M 10.998047,5.2265625 H 21.001953 V 7.7949219 H 10.998047 Z M 3.6328125,9.6992188 H 28.369141 V 26.861328 H 3.6328125 Z M 15.982422,12.216797 C 15.432445,12.226482 14.993524,12.678492 15,13.228516 v 4 h -4.998047 c -1.3048531,0.02818 -1.3048531,1.971824 0,2 H 15 v 2.998046 c -0.03025,1.363243 2.030246,1.363243 2,0 v -2.998046 h 4.998047 c 1.304853,-0.02818 1.304853,-1.971824 0,-2 H 17 v -4 c 0.0066,-0.563787 -0.453839,-1.021612 -1.017578,-1.011719 z" transform="matrix(0.26458333,0,0,0.26458333,0,288.53332)"/></g><text x="0" y="23.4666669" fill="#000000" font-size="5px" font-weight="bold" font-family="'Helvetica Neue', Helvetica, Arial-Unicode, Arial, Sans-serif">Created by Farit Al Fauzi</text><text x="0" y="28.4666669" fill="#000000" font-size="5px" font-weight="bold" font-family="'Helvetica Neue', Helvetica, Arial-Unicode, Arial, Sans-serif">from the Noun Project</text></svg>