<svg xmlns="http://www.w3.org/2000/svg" xmlns:xlink="http://www.w3.org/1999/xlink" version="1.1" x="0px" y="0px" viewBox="0 0 40 50" enable-background="new 0 0 40 40" xml:space="preserve"><path d="M5.15,12.518h17.716c0.903,0,1.635-0.731,1.635-1.635V8.922c0-0.903-0.731-1.636-1.635-1.636H5.15  c-0.903,0-1.636,0.732-1.636,1.636v1.961C3.515,11.787,4.247,12.518,5.15,12.518z"/><path d="M19.987,27.481H5.15c-0.903,0-1.636,0.732-1.636,1.636v1.961c0,0.903,0.732,1.636,1.636,1.636h17.716  c0.252,0,0.488-0.062,0.701-0.164C21.845,31.342,20.562,29.559,19.987,27.481z"/><path d="M5.15,25.981h14.545c-0.031-0.308-0.048-0.62-0.048-0.937c0-1.552,0.391-3.013,1.074-4.295H5.15  c-0.903,0-1.636,0.732-1.636,1.636v1.961C3.515,25.249,4.247,25.981,5.15,25.981z"/><path d="M5.15,19.25h16.568c0.765-0.935,1.71-1.716,2.782-2.291v-1.305c0-0.903-0.731-1.636-1.635-1.636H5.15  c-0.903,0-1.636,0.732-1.636,1.636v1.961C3.515,18.517,4.247,19.25,5.15,19.25z"/><path d="M28.817,17.375c-4.235,0-7.67,3.434-7.67,7.669s3.435,7.669,7.67,7.669c4.234,0,7.668-3.434,7.668-7.669  S33.052,17.375,28.817,17.375z M29.384,28.899v1.285h-1.234v-1.197c-0.844-0.038-1.662-0.264-2.143-0.541l0.379-1.475  c0.529,0.29,1.271,0.555,2.092,0.555c0.717,0,1.209-0.277,1.209-0.781c0-0.479-0.403-0.781-1.336-1.096  c-1.348-0.454-2.268-1.083-2.268-2.306c0-1.108,0.781-1.978,2.129-2.242v-1.196h1.234v1.108c0.845,0.038,1.411,0.214,1.826,0.416  l-0.363,1.423c-0.328-0.139-0.908-0.428-1.814-0.428c-0.819,0-1.084,0.353-1.084,0.706c0,0.416,0.441,0.68,1.512,1.083  c1.498,0.529,2.104,1.223,2.104,2.356C31.626,27.689,30.833,28.647,29.384,28.899z"/><text x="0" y="55" fill="#000000" font-size="5px" font-weight="bold" font-family="'Helvetica Neue', Helvetica, Arial-Unicode, Arial, Sans-serif">Created by Thuy Nguyen</text><text x="0" y="60" fill="#000000" font-size="5px" font-weight="bold" font-family="'Helvetica Neue', Helvetica, Arial-Unicode, Arial, Sans-serif">from the Noun Project</text></svg>