<svg xmlns="http://www.w3.org/2000/svg" version="1.1" viewBox="-5.0 -10.0 110.0 135.0">
 <path d="m36.301 55.156c-4.3086 0-7.8125 3.5039-7.8125 7.8125s3.5039 7.8125 7.8125 7.8125c4.3086 0 7.8125-3.5039 7.8125-7.8125s-3.5039-7.8125-7.8125-7.8125zm0 9.375c-0.85938 0-1.5625-0.70312-1.5625-1.5625s0.70312-1.5625 1.5625-1.5625 1.5625 0.70312 1.5625 1.5625-0.70312 1.5625-1.5625 1.5625zm27.582-9.375c-4.3086 0-7.8125 3.5039-7.8125 7.8125s3.5039 7.8125 7.8125 7.8125c4.3086 0 7.8125-3.5039 7.8125-7.8125s-3.5039-7.8125-7.8125-7.8125zm0 9.375c-0.85937 0-1.5625-0.70312-1.5625-1.5625s0.70313-1.5625 1.5625-1.5625c0.85938 0 1.5625 0.70312 1.5625 1.5625s-0.70312 1.5625-1.5625 1.5625zm-8.1367-4.9883c0 1.7266-1.3984 3.125-3.125 3.125h-5.3555c-1.7266 0-3.125-1.3984-3.125-3.125 0-1.7266 1.3984-3.125 3.125-3.125h5.3555c1.7266 0 3.125 1.3984 3.125 3.125zm0 8.8711c0 1.7266-1.3984 3.125-3.125 3.125h-5.3555c-1.7266 0-3.125-1.3984-3.125-3.125 0-1.7266 1.3984-3.125 3.125-3.125h5.3555c1.7266 0 3.125 1.3984 3.125 3.125zm25.504-43.664v-3.5742c0-4.9023-4.207-8.8945-9.375-8.8945h-43.75c-5.168 0-9.375 3.9883-9.375 8.8945v4.0859c-0.042969 0-0.082031-0.023438-0.125-0.023438-1.7266 0-3.125 1.3984-3.125 3.125v9.1641c0 1.7266 1.3984 3.125 3.125 3.125 0.042969 0 0.082031-0.023438 0.125-0.023438v29.551c0 3.875 2.6484 7.1484 6.3047 8.3594v3.168c0 3.3125 2.8047 6.0078 6.25 6.0078h6.0547c3.4453 0 6.25-2.6953 6.25-6.0078v-2.6406h12.586v2.6406c0 3.3125 2.8047 6.0078 6.25 6.0078h6.3047c3.4453 0 6.25-2.6953 6.25-6.0078v-3.1875c3.6289-1.2266 6.25-4.4883 6.25-8.3438v-30.043c1.6875-0.046874 3.043-1.4102 3.043-3.1094v-9.168c0-1.6992-1.3555-3.0625-3.043-3.1094zm-53.125-6.2148h43.75c1.7227 0 3.125 1.1836 3.125 2.6445v25.699l-50-0.003906v-25.699c0-1.457 1.4023-2.6445 3.125-2.6445zm9.2344 62.93-6.0547 0.24219v-2.6406h6.0547zm25.086 0.24219v-2.6406h6.3047v2.3984zm9.4297-8.8906h-43.75c-1.7227 0-3.125-1.1836-3.125-2.6406v-17.055h50v17.055c0 1.457-1.4023 2.6406-3.125 2.6406z"/>
<text x="0.0" y="117.5" font-size="5.0" font-weight="bold" font-family="Arbeit Regular, Helvetica, Arial-Unicode, Arial, Sans-serif" fill="#000000">Created by Syaeful Amri</text><text x="0.0" y="122.5" font-size="5.0" font-weight="bold" font-family="Arbeit Regular, Helvetica, Arial-Unicode, Arial, Sans-serif" fill="#000000">from Noun Project</text></svg>